<?xml version="1.0" encoding="utf-8"?>
<svg xmlns="http://www.w3.org/2000/svg" xmlns:xlink="http://www.w3.org/1999/xlink" xml:space="preserve" width="232" height="232" viewBox="0 0 232 232"><g fill="#7c3aed">
<g transform="translate(96,16) scale(1.3733333333333)"><rect width="6" height="6"/></g>
<g transform="translate(112,16) scale(1.3733333333333)"><rect width="6" height="6"/></g>
<g transform="translate(144,16) scale(1.3733333333333)"><rect width="6" height="6"/></g>
<g transform="translate(80,24) scale(1.3733333333333)"><rect width="6" height="6"/></g>
<g transform="translate(96,24) scale(1.3733333333333)"><rect width="6" height="6"/></g>
<g transform="translate(136,24) scale(1.3733333333333)"><rect width="6" height="6"/></g>
<g transform="translate(144,24) scale(1.3733333333333)"><rect width="6" height="6"/></g>
<g transform="translate(112,32) scale(1.3733333333333)"><rect width="6" height="6"/></g>
<g transform="translate(128,32) scale(1.3733333333333)"><rect width="6" height="6"/></g>
<g transform="translate(144,32) scale(1.3733333333333)"><rect width="6" height="6"/></g>
<g transform="translate(80,40) scale(1.3733333333333)"><rect width="6" height="6"/></g>
<g transform="translate(88,40) scale(1.3733333333333)"><rect width="6" height="6"/></g>
<g transform="translate(96,40) scale(1.3733333333333)"><rect width="6" height="6"/></g>
<g transform="translate(112,40) scale(1.3733333333333)"><rect width="6" height="6"/></g>
<g transform="translate(120,40) scale(1.3733333333333)"><rect width="6" height="6"/></g>
<g transform="translate(128,40) scale(1.3733333333333)"><rect width="6" height="6"/></g>
<g transform="translate(88,48) scale(1.3733333333333)"><rect width="6" height="6"/></g>
<g transform="translate(128,48) scale(1.3733333333333)"><rect width="6" height="6"/></g>
<g transform="translate(80,56) scale(1.3733333333333)"><rect width="6" height="6"/></g>
<g transform="translate(88,56) scale(1.3733333333333)"><rect width="6" height="6"/></g>
<g transform="translate(104,56) scale(1.3733333333333)"><rect width="6" height="6"/></g>
<g transform="translate(112,56) scale(1.3733333333333)"><rect width="6" height="6"/></g>
<g transform="translate(120,56) scale(1.3733333333333)"><rect width="6" height="6"/></g>
<g transform="translate(136,56) scale(1.3733333333333)"><rect width="6" height="6"/></g>
<g transform="translate(144,56) scale(1.3733333333333)"><rect width="6" height="6"/></g>
<g transform="translate(80,64) scale(1.3733333333333)"><rect width="6" height="6"/></g>
<g transform="translate(96,64) scale(1.3733333333333)"><rect width="6" height="6"/></g>
<g transform="translate(112,64) scale(1.3733333333333)"><rect width="6" height="6"/></g>
<g transform="translate(128,64) scale(1.3733333333333)"><rect width="6" height="6"/></g>
<g transform="translate(144,64) scale(1.3733333333333)"><rect width="6" height="6"/></g>
<g transform="translate(88,72) scale(1.3733333333333)"><rect width="6" height="6"/></g>
<g transform="translate(96,72) scale(1.3733333333333)"><rect width="6" height="6"/></g>
<g transform="translate(104,72) scale(1.3733333333333)"><rect width="6" height="6"/></g>
<g transform="translate(128,72) scale(1.3733333333333)"><rect width="6" height="6"/></g>
<g transform="translate(136,72) scale(1.3733333333333)"><rect width="6" height="6"/></g>
<g transform="translate(144,72) scale(1.3733333333333)"><rect width="6" height="6"/></g>
<g transform="translate(16,80) scale(1.3733333333333)"><rect width="6" height="6"/></g>
<g transform="translate(24,80) scale(1.3733333333333)"><rect width="6" height="6"/></g>
<g transform="translate(32,80) scale(1.3733333333333)"><rect width="6" height="6"/></g>
<g transform="translate(40,80) scale(1.3733333333333)"><rect width="6" height="6"/></g>
<g transform="translate(48,80) scale(1.3733333333333)"><rect width="6" height="6"/></g>
<g transform="translate(64,80) scale(1.3733333333333)"><rect width="6" height="6"/></g>
<g transform="translate(72,80) scale(1.3733333333333)"><rect width="6" height="6"/></g>
<g transform="translate(80,80) scale(1.3733333333333)"><rect width="6" height="6"/></g>
<g transform="translate(88,80) scale(1.3733333333333)"><rect width="6" height="6"/></g>
<g transform="translate(104,80) scale(1.3733333333333)"><rect width="6" height="6"/></g>
<g transform="translate(120,80) scale(1.3733333333333)"><rect width="6" height="6"/></g>
<g transform="translate(128,80) scale(1.3733333333333)"><rect width="6" height="6"/></g>
<g transform="translate(136,80) scale(1.3733333333333)"><rect width="6" height="6"/></g>
<g transform="translate(152,80) scale(1.3733333333333)"><rect width="6" height="6"/></g>
<g transform="translate(168,80) scale(1.3733333333333)"><rect width="6" height="6"/></g>
<g transform="translate(184,80) scale(1.3733333333333)"><rect width="6" height="6"/></g>
<g transform="translate(200,80) scale(1.3733333333333)"><rect width="6" height="6"/></g>
<g transform="translate(32,88) scale(1.3733333333333)"><rect width="6" height="6"/></g>
<g transform="translate(40,88) scale(1.3733333333333)"><rect width="6" height="6"/></g>
<g transform="translate(56,88) scale(1.3733333333333)"><rect width="6" height="6"/></g>
<g transform="translate(72,88) scale(1.3733333333333)"><rect width="6" height="6"/></g>
<g transform="translate(80,88) scale(1.3733333333333)"><rect width="6" height="6"/></g>
<g transform="translate(96,88) scale(1.3733333333333)"><rect width="6" height="6"/></g>
<g transform="translate(112,88) scale(1.3733333333333)"><rect width="6" height="6"/></g>
<g transform="translate(120,88) scale(1.3733333333333)"><rect width="6" height="6"/></g>
<g transform="translate(144,88) scale(1.3733333333333)"><rect width="6" height="6"/></g>
<g transform="translate(168,88) scale(1.3733333333333)"><rect width="6" height="6"/></g>
<g transform="translate(200,88) scale(1.3733333333333)"><rect width="6" height="6"/></g>
<g transform="translate(48,96) scale(1.3733333333333)"><rect width="6" height="6"/></g>
<g transform="translate(64,96) scale(1.3733333333333)"><rect width="6" height="6"/></g>
<g transform="translate(80,96) scale(1.3733333333333)"><rect width="6" height="6"/></g>
<g transform="translate(96,96) scale(1.3733333333333)"><rect width="6" height="6"/></g>
<g transform="translate(136,96) scale(1.3733333333333)"><rect width="6" height="6"/></g>
<g transform="translate(144,96) scale(1.3733333333333)"><rect width="6" height="6"/></g>
<g transform="translate(152,96) scale(1.3733333333333)"><rect width="6" height="6"/></g>
<g transform="translate(168,96) scale(1.3733333333333)"><rect width="6" height="6"/></g>
<g transform="translate(184,96) scale(1.3733333333333)"><rect width="6" height="6"/></g>
<g transform="translate(200,96) scale(1.3733333333333)"><rect width="6" height="6"/></g>
<g transform="translate(208,96) scale(1.3733333333333)"><rect width="6" height="6"/></g>
<g transform="translate(32,104) scale(1.3733333333333)"><rect width="6" height="6"/></g>
<g transform="translate(56,104) scale(1.3733333333333)"><rect width="6" height="6"/></g>
<g transform="translate(80,104) scale(1.3733333333333)"><rect width="6" height="6"/></g>
<g transform="translate(112,104) scale(1.3733333333333)"><rect width="6" height="6"/></g>
<g transform="translate(128,104) scale(1.3733333333333)"><rect width="6" height="6"/></g>
<g transform="translate(136,104) scale(1.3733333333333)"><rect width="6" height="6"/></g>
<g transform="translate(144,104) scale(1.3733333333333)"><rect width="6" height="6"/></g>
<g transform="translate(176,104) scale(1.3733333333333)"><rect width="6" height="6"/></g>
<g transform="translate(208,104) scale(1.3733333333333)"><rect width="6" height="6"/></g>
<g transform="translate(16,112) scale(1.3733333333333)"><rect width="6" height="6"/></g>
<g transform="translate(24,112) scale(1.3733333333333)"><rect width="6" height="6"/></g>
<g transform="translate(40,112) scale(1.3733333333333)"><rect width="6" height="6"/></g>
<g transform="translate(56,112) scale(1.3733333333333)"><rect width="6" height="6"/></g>
<g transform="translate(64,112) scale(1.3733333333333)"><rect width="6" height="6"/></g>
<g transform="translate(88,112) scale(1.3733333333333)"><rect width="6" height="6"/></g>
<g transform="translate(96,112) scale(1.3733333333333)"><rect width="6" height="6"/></g>
<g transform="translate(112,112) scale(1.3733333333333)"><rect width="6" height="6"/></g>
<g transform="translate(120,112) scale(1.3733333333333)"><rect width="6" height="6"/></g>
<g transform="translate(128,112) scale(1.3733333333333)"><rect width="6" height="6"/></g>
<g transform="translate(136,112) scale(1.3733333333333)"><rect width="6" height="6"/></g>
<g transform="translate(152,112) scale(1.3733333333333)"><rect width="6" height="6"/></g>
<g transform="translate(160,112) scale(1.3733333333333)"><rect width="6" height="6"/></g>
<g transform="translate(176,112) scale(1.3733333333333)"><rect width="6" height="6"/></g>
<g transform="translate(192,112) scale(1.3733333333333)"><rect width="6" height="6"/></g>
<g transform="translate(200,112) scale(1.3733333333333)"><rect width="6" height="6"/></g>
<g transform="translate(208,112) scale(1.3733333333333)"><rect width="6" height="6"/></g>
<g transform="translate(16,120) scale(1.3733333333333)"><rect width="6" height="6"/></g>
<g transform="translate(40,120) scale(1.3733333333333)"><rect width="6" height="6"/></g>
<g transform="translate(56,120) scale(1.3733333333333)"><rect width="6" height="6"/></g>
<g transform="translate(120,120) scale(1.3733333333333)"><rect width="6" height="6"/></g>
<g transform="translate(128,120) scale(1.3733333333333)"><rect width="6" height="6"/></g>
<g transform="translate(144,120) scale(1.3733333333333)"><rect width="6" height="6"/></g>
<g transform="translate(168,120) scale(1.3733333333333)"><rect width="6" height="6"/></g>
<g transform="translate(184,120) scale(1.3733333333333)"><rect width="6" height="6"/></g>
<g transform="translate(200,120) scale(1.3733333333333)"><rect width="6" height="6"/></g>
<g transform="translate(16,128) scale(1.3733333333333)"><rect width="6" height="6"/></g>
<g transform="translate(32,128) scale(1.3733333333333)"><rect width="6" height="6"/></g>
<g transform="translate(40,128) scale(1.3733333333333)"><rect width="6" height="6"/></g>
<g transform="translate(64,128) scale(1.3733333333333)"><rect width="6" height="6"/></g>
<g transform="translate(72,128) scale(1.3733333333333)"><rect width="6" height="6"/></g>
<g transform="translate(80,128) scale(1.3733333333333)"><rect width="6" height="6"/></g>
<g transform="translate(96,128) scale(1.3733333333333)"><rect width="6" height="6"/></g>
<g transform="translate(104,128) scale(1.3733333333333)"><rect width="6" height="6"/></g>
<g transform="translate(112,128) scale(1.3733333333333)"><rect width="6" height="6"/></g>
<g transform="translate(120,128) scale(1.3733333333333)"><rect width="6" height="6"/></g>
<g transform="translate(136,128) scale(1.3733333333333)"><rect width="6" height="6"/></g>
<g transform="translate(184,128) scale(1.3733333333333)"><rect width="6" height="6"/></g>
<g transform="translate(200,128) scale(1.3733333333333)"><rect width="6" height="6"/></g>
<g transform="translate(208,128) scale(1.3733333333333)"><rect width="6" height="6"/></g>
<g transform="translate(16,136) scale(1.3733333333333)"><rect width="6" height="6"/></g>
<g transform="translate(32,136) scale(1.3733333333333)"><rect width="6" height="6"/></g>
<g transform="translate(40,136) scale(1.3733333333333)"><rect width="6" height="6"/></g>
<g transform="translate(56,136) scale(1.3733333333333)"><rect width="6" height="6"/></g>
<g transform="translate(72,136) scale(1.3733333333333)"><rect width="6" height="6"/></g>
<g transform="translate(96,136) scale(1.3733333333333)"><rect width="6" height="6"/></g>
<g transform="translate(104,136) scale(1.3733333333333)"><rect width="6" height="6"/></g>
<g transform="translate(144,136) scale(1.3733333333333)"><rect width="6" height="6"/></g>
<g transform="translate(152,136) scale(1.3733333333333)"><rect width="6" height="6"/></g>
<g transform="translate(168,136) scale(1.3733333333333)"><rect width="6" height="6"/></g>
<g transform="translate(176,136) scale(1.3733333333333)"><rect width="6" height="6"/></g>
<g transform="translate(184,136) scale(1.3733333333333)"><rect width="6" height="6"/></g>
<g transform="translate(208,136) scale(1.3733333333333)"><rect width="6" height="6"/></g>
<g transform="translate(16,144) scale(1.3733333333333)"><rect width="6" height="6"/></g>
<g transform="translate(32,144) scale(1.3733333333333)"><rect width="6" height="6"/></g>
<g transform="translate(56,144) scale(1.3733333333333)"><rect width="6" height="6"/></g>
<g transform="translate(64,144) scale(1.3733333333333)"><rect width="6" height="6"/></g>
<g transform="translate(104,144) scale(1.3733333333333)"><rect width="6" height="6"/></g>
<g transform="translate(120,144) scale(1.3733333333333)"><rect width="6" height="6"/></g>
<g transform="translate(128,144) scale(1.3733333333333)"><rect width="6" height="6"/></g>
<g transform="translate(144,144) scale(1.3733333333333)"><rect width="6" height="6"/></g>
<g transform="translate(152,144) scale(1.3733333333333)"><rect width="6" height="6"/></g>
<g transform="translate(160,144) scale(1.3733333333333)"><rect width="6" height="6"/></g>
<g transform="translate(168,144) scale(1.3733333333333)"><rect width="6" height="6"/></g>
<g transform="translate(176,144) scale(1.3733333333333)"><rect width="6" height="6"/></g>
<g transform="translate(192,144) scale(1.3733333333333)"><rect width="6" height="6"/></g>
<g transform="translate(80,152) scale(1.3733333333333)"><rect width="6" height="6"/></g>
<g transform="translate(96,152) scale(1.3733333333333)"><rect width="6" height="6"/></g>
<g transform="translate(112,152) scale(1.3733333333333)"><rect width="6" height="6"/></g>
<g transform="translate(120,152) scale(1.3733333333333)"><rect width="6" height="6"/></g>
<g transform="translate(136,152) scale(1.3733333333333)"><rect width="6" height="6"/></g>
<g transform="translate(144,152) scale(1.3733333333333)"><rect width="6" height="6"/></g>
<g transform="translate(176,152) scale(1.3733333333333)"><rect width="6" height="6"/></g>
<g transform="translate(184,152) scale(1.3733333333333)"><rect width="6" height="6"/></g>
<g transform="translate(192,152) scale(1.3733333333333)"><rect width="6" height="6"/></g>
<g transform="translate(80,160) scale(1.3733333333333)"><rect width="6" height="6"/></g>
<g transform="translate(88,160) scale(1.3733333333333)"><rect width="6" height="6"/></g>
<g transform="translate(96,160) scale(1.3733333333333)"><rect width="6" height="6"/></g>
<g transform="translate(120,160) scale(1.3733333333333)"><rect width="6" height="6"/></g>
<g transform="translate(128,160) scale(1.3733333333333)"><rect width="6" height="6"/></g>
<g transform="translate(144,160) scale(1.3733333333333)"><rect width="6" height="6"/></g>
<g transform="translate(160,160) scale(1.3733333333333)"><rect width="6" height="6"/></g>
<g transform="translate(176,160) scale(1.3733333333333)"><rect width="6" height="6"/></g>
<g transform="translate(184,160) scale(1.3733333333333)"><rect width="6" height="6"/></g>
<g transform="translate(192,160) scale(1.3733333333333)"><rect width="6" height="6"/></g>
<g transform="translate(200,160) scale(1.3733333333333)"><rect width="6" height="6"/></g>
<g transform="translate(208,160) scale(1.3733333333333)"><rect width="6" height="6"/></g>
<g transform="translate(88,168) scale(1.3733333333333)"><rect width="6" height="6"/></g>
<g transform="translate(112,168) scale(1.3733333333333)"><rect width="6" height="6"/></g>
<g transform="translate(128,168) scale(1.3733333333333)"><rect width="6" height="6"/></g>
<g transform="translate(136,168) scale(1.3733333333333)"><rect width="6" height="6"/></g>
<g transform="translate(144,168) scale(1.3733333333333)"><rect width="6" height="6"/></g>
<g transform="translate(176,168) scale(1.3733333333333)"><rect width="6" height="6"/></g>
<g transform="translate(184,168) scale(1.3733333333333)"><rect width="6" height="6"/></g>
<g transform="translate(200,168) scale(1.3733333333333)"><rect width="6" height="6"/></g>
<g transform="translate(80,176) scale(1.3733333333333)"><rect width="6" height="6"/></g>
<g transform="translate(88,176) scale(1.3733333333333)"><rect width="6" height="6"/></g>
<g transform="translate(96,176) scale(1.3733333333333)"><rect width="6" height="6"/></g>
<g transform="translate(112,176) scale(1.3733333333333)"><rect width="6" height="6"/></g>
<g transform="translate(120,176) scale(1.3733333333333)"><rect width="6" height="6"/></g>
<g transform="translate(128,176) scale(1.3733333333333)"><rect width="6" height="6"/></g>
<g transform="translate(136,176) scale(1.3733333333333)"><rect width="6" height="6"/></g>
<g transform="translate(144,176) scale(1.3733333333333)"><rect width="6" height="6"/></g>
<g transform="translate(152,176) scale(1.3733333333333)"><rect width="6" height="6"/></g>
<g transform="translate(160,176) scale(1.3733333333333)"><rect width="6" height="6"/></g>
<g transform="translate(168,176) scale(1.3733333333333)"><rect width="6" height="6"/></g>
<g transform="translate(176,176) scale(1.3733333333333)"><rect width="6" height="6"/></g>
<g transform="translate(184,176) scale(1.3733333333333)"><rect width="6" height="6"/></g>
<g transform="translate(192,176) scale(1.3733333333333)"><rect width="6" height="6"/></g>
<g transform="translate(200,176) scale(1.3733333333333)"><rect width="6" height="6"/></g>
<g transform="translate(208,176) scale(1.3733333333333)"><rect width="6" height="6"/></g>
<g transform="translate(80,184) scale(1.3733333333333)"><rect width="6" height="6"/></g>
<g transform="translate(88,184) scale(1.3733333333333)"><rect width="6" height="6"/></g>
<g transform="translate(128,184) scale(1.3733333333333)"><rect width="6" height="6"/></g>
<g transform="translate(136,184) scale(1.3733333333333)"><rect width="6" height="6"/></g>
<g transform="translate(144,184) scale(1.3733333333333)"><rect width="6" height="6"/></g>
<g transform="translate(152,184) scale(1.3733333333333)"><rect width="6" height="6"/></g>
<g transform="translate(160,184) scale(1.3733333333333)"><rect width="6" height="6"/></g>
<g transform="translate(176,184) scale(1.3733333333333)"><rect width="6" height="6"/></g>
<g transform="translate(192,184) scale(1.3733333333333)"><rect width="6" height="6"/></g>
<g transform="translate(200,184) scale(1.3733333333333)"><rect width="6" height="6"/></g>
<g transform="translate(208,184) scale(1.3733333333333)"><rect width="6" height="6"/></g>
<g transform="translate(80,192) scale(1.3733333333333)"><rect width="6" height="6"/></g>
<g transform="translate(88,192) scale(1.3733333333333)"><rect width="6" height="6"/></g>
<g transform="translate(104,192) scale(1.3733333333333)"><rect width="6" height="6"/></g>
<g transform="translate(112,192) scale(1.3733333333333)"><rect width="6" height="6"/></g>
<g transform="translate(120,192) scale(1.3733333333333)"><rect width="6" height="6"/></g>
<g transform="translate(128,192) scale(1.3733333333333)"><rect width="6" height="6"/></g>
<g transform="translate(136,192) scale(1.3733333333333)"><rect width="6" height="6"/></g>
<g transform="translate(152,192) scale(1.3733333333333)"><rect width="6" height="6"/></g>
<g transform="translate(168,192) scale(1.3733333333333)"><rect width="6" height="6"/></g>
<g transform="translate(192,192) scale(1.3733333333333)"><rect width="6" height="6"/></g>
<g transform="translate(208,192) scale(1.3733333333333)"><rect width="6" height="6"/></g>
<g transform="translate(80,200) scale(1.3733333333333)"><rect width="6" height="6"/></g>
<g transform="translate(104,200) scale(1.3733333333333)"><rect width="6" height="6"/></g>
<g transform="translate(144,200) scale(1.3733333333333)"><rect width="6" height="6"/></g>
<g transform="translate(152,200) scale(1.3733333333333)"><rect width="6" height="6"/></g>
<g transform="translate(160,200) scale(1.3733333333333)"><rect width="6" height="6"/></g>
<g transform="translate(168,200) scale(1.3733333333333)"><rect width="6" height="6"/></g>
<g transform="translate(176,200) scale(1.3733333333333)"><rect width="6" height="6"/></g>
<g transform="translate(184,200) scale(1.3733333333333)"><rect width="6" height="6"/></g>
<g transform="translate(208,200) scale(1.3733333333333)"><rect width="6" height="6"/></g>
<g transform="translate(80,208) scale(1.3733333333333)"><rect width="6" height="6"/></g>
<g transform="translate(88,208) scale(1.3733333333333)"><rect width="6" height="6"/></g>
<g transform="translate(104,208) scale(1.3733333333333)"><rect width="6" height="6"/></g>
<g transform="translate(112,208) scale(1.3733333333333)"><rect width="6" height="6"/></g>
<g transform="translate(160,208) scale(1.3733333333333)"><rect width="6" height="6"/></g>
<g transform="translate(168,208) scale(1.3733333333333)"><rect width="6" height="6"/></g>
<g transform="translate(176,208) scale(1.3733333333333)"><rect width="6" height="6"/></g>
<g transform="translate(184,208) scale(1.3733333333333)"><rect width="6" height="6"/></g>
<g transform="translate(192,208) scale(1.3733333333333)"><rect width="6" height="6"/></g>
<g transform="translate(200,208) scale(1.3733333333333)"><rect width="6" height="6"/></g>
<g transform="translate(208,208) scale(1.3733333333333)"><rect width="6" height="6"/></g>
<g transform="translate(16,16)"><g transform="scale(4)"><path d="M0,0v14h14V0H0z M12,12H2V2h10V12z"/></g></g>
<g transform="translate(160,16)"><g transform="scale(4)"><path d="M0,0v14h14V0H0z M12,12H2V2h10V12z"/></g></g>
<g transform="translate(16,160)"><g transform="scale(4)"><path d="M0,0v14h14V0H0z M12,12H2V2h10V12z"/></g></g>
<g transform="translate(32,32)"><g transform="scale(4)"><rect width="6" height="6"/></g></g>
<g transform="translate(176,32)"><g transform="scale(4)"><rect width="6" height="6"/></g></g>
<g transform="translate(32,176)"><g transform="scale(4)"><rect width="6" height="6"/></g></g>
</g></svg>
