<?xml version="1.0" encoding="UTF-8" standalone="no"?>
<svg
   xml:space="preserve"
   width="800.96002"
   height="800.96002"
   viewBox="0 0 800.96002 800.96002"
   version="1.1"
   id="svg590"
   xmlns="http://www.w3.org/2000/svg"
   xmlns:svg="http://www.w3.org/2000/svg"><defs
     id="defs594" /><g
     fill="#000000"
     id="g588"
     transform="matrix(1.1902045,0,0,1.1902045,-76.173088,-76.173088)">
<g
   transform="matrix(5.4933333,0,0,5.4933333,320,96)"
   id="g6"><rect
     width="6"
     height="6"
     id="rect4"
     x="0"
     y="0" /></g>
<g
   transform="matrix(5.4933333,0,0,5.4933333,416,96)"
   id="g10"><rect
     width="6"
     height="6"
     id="rect8"
     x="0"
     y="0" /></g>
<g
   transform="matrix(5.4933333,0,0,5.4933333,448,96)"
   id="g14"><rect
     width="6"
     height="6"
     id="rect12"
     x="0"
     y="0" /></g>
<g
   transform="matrix(5.4933333,0,0,5.4933333,448,128)"
   id="g18"><rect
     width="6"
     height="6"
     id="rect16"
     x="0"
     y="0" /></g>
<g
   transform="matrix(5.4933333,0,0,5.4933333,320,160)"
   id="g22"><rect
     width="6"
     height="6"
     id="rect20"
     x="0"
     y="0" /></g>
<g
   transform="matrix(5.4933333,0,0,5.4933333,384,160)"
   id="g26"><rect
     width="6"
     height="6"
     id="rect24"
     x="0"
     y="0" /></g>
<g
   transform="matrix(5.4933333,0,0,5.4933333,416,160)"
   id="g30"><rect
     width="6"
     height="6"
     id="rect28"
     x="0"
     y="0" /></g>
<g
   transform="matrix(5.4933333,0,0,5.4933333,448,160)"
   id="g34"><rect
     width="6"
     height="6"
     id="rect32"
     x="0"
     y="0" /></g>
<g
   transform="matrix(5.4933333,0,0,5.4933333,320,224)"
   id="g38"><rect
     width="6"
     height="6"
     id="rect36"
     x="0"
     y="0" /></g>
<g
   transform="matrix(5.4933333,0,0,5.4933333,352,224)"
   id="g42"><rect
     width="6"
     height="6"
     id="rect40"
     x="0"
     y="0" /></g>
<g
   transform="matrix(5.4933333,0,0,5.4933333,384,224)"
   id="g46"><rect
     width="6"
     height="6"
     id="rect44"
     x="0"
     y="0" /></g>
<g
   transform="matrix(5.4933333,0,0,5.4933333,416,224)"
   id="g50"><rect
     width="6"
     height="6"
     id="rect48"
     x="0"
     y="0" /></g>
<g
   transform="matrix(5.4933333,0,0,5.4933333,448,224)"
   id="g54"><rect
     width="6"
     height="6"
     id="rect52"
     x="0"
     y="0" /></g>
<g
   transform="matrix(5.4933333,0,0,5.4933333,320,256)"
   id="g58"><rect
     width="6"
     height="6"
     id="rect56"
     x="0"
     y="0" /></g>
<g
   transform="matrix(5.4933333,0,0,5.4933333,384,256)"
   id="g62"><rect
     width="6"
     height="6"
     id="rect60"
     x="0"
     y="0" /></g>
<g
   transform="matrix(5.4933333,0,0,5.4933333,448,256)"
   id="g66"><rect
     width="6"
     height="6"
     id="rect64"
     x="0"
     y="0" /></g>
<g
   transform="matrix(5.4933333,0,0,5.4933333,352,288)"
   id="g70"><rect
     width="6"
     height="6"
     id="rect68"
     x="0"
     y="0" /></g>
<g
   transform="matrix(5.4933333,0,0,5.4933333,64,320)"
   id="g74"><rect
     width="6"
     height="6"
     id="rect72"
     x="0"
     y="0" /></g>
<g
   transform="matrix(5.4933333,0,0,5.4933333,96,320)"
   id="g78"><rect
     width="6"
     height="6"
     id="rect76"
     x="0"
     y="0" /></g>
<g
   transform="matrix(5.4933333,0,0,5.4933333,128,320)"
   id="g82"><rect
     width="6"
     height="6"
     id="rect80"
     x="0"
     y="0" /></g>
<g
   transform="matrix(5.4933333,0,0,5.4933333,160,320)"
   id="g86"><rect
     width="6"
     height="6"
     id="rect84"
     x="0"
     y="0" /></g>
<g
   transform="matrix(5.4933333,0,0,5.4933333,192,320)"
   id="g90"><rect
     width="6"
     height="6"
     id="rect88"
     x="0"
     y="0" /></g>
<g
   transform="matrix(5.4933333,0,0,5.4933333,256,320)"
   id="g94"><rect
     width="6"
     height="6"
     id="rect92"
     x="0"
     y="0" /></g>
<g
   transform="matrix(5.4933333,0,0,5.4933333,288,320)"
   id="g98"><rect
     width="6"
     height="6"
     id="rect96"
     x="0"
     y="0" /></g>
<g
   transform="matrix(5.4933333,0,0,5.4933333,320,320)"
   id="g102"><rect
     width="6"
     height="6"
     id="rect100"
     x="0"
     y="0" /></g>
<g
   transform="matrix(5.4933333,0,0,5.4933333,352,320)"
   id="g106"><rect
     width="6"
     height="6"
     id="rect104"
     x="0"
     y="0" /></g>
<g
   transform="matrix(5.4933333,0,0,5.4933333,416,320)"
   id="g110"><rect
     width="6"
     height="6"
     id="rect108"
     x="0"
     y="0" /></g>
<g
   transform="matrix(5.4933333,0,0,5.4933333,480,320)"
   id="g114"><rect
     width="6"
     height="6"
     id="rect112"
     x="0"
     y="0" /></g>
<g
   transform="matrix(5.4933333,0,0,5.4933333,544,320)"
   id="g118"><rect
     width="6"
     height="6"
     id="rect116"
     x="0"
     y="0" /></g>
<g
   transform="matrix(5.4933333,0,0,5.4933333,608,320)"
   id="g122"><rect
     width="6"
     height="6"
     id="rect120"
     x="0"
     y="0" /></g>
<g
   transform="matrix(5.4933333,0,0,5.4933333,672,320)"
   id="g126"><rect
     width="6"
     height="6"
     id="rect124"
     x="0"
     y="0" /></g>
<g
   transform="matrix(5.4933333,0,0,5.4933333,64,352)"
   id="g130"><rect
     width="6"
     height="6"
     id="rect128"
     x="0"
     y="0" /></g>
<g
   transform="matrix(5.4933333,0,0,5.4933333,320,352)"
   id="g134"><rect
     width="6"
     height="6"
     id="rect132"
     x="0"
     y="0" /></g>
<g
   transform="matrix(5.4933333,0,0,5.4933333,352,352)"
   id="g138"><rect
     width="6"
     height="6"
     id="rect136"
     x="0"
     y="0" /></g>
<g
   transform="matrix(5.4933333,0,0,5.4933333,480,352)"
   id="g142"><rect
     width="6"
     height="6"
     id="rect140"
     x="0"
     y="0" /></g>
<g
   transform="matrix(5.4933333,0,0,5.4933333,512,352)"
   id="g146"><rect
     width="6"
     height="6"
     id="rect144"
     x="0"
     y="0" /></g>
<g
   transform="matrix(5.4933333,0,0,5.4933333,544,352)"
   id="g150"><rect
     width="6"
     height="6"
     id="rect148"
     x="0"
     y="0" /></g>
<g
   transform="matrix(5.4933333,0,0,5.4933333,576,352)"
   id="g154"><rect
     width="6"
     height="6"
     id="rect152"
     x="0"
     y="0" /></g>
<g
   transform="matrix(5.4933333,0,0,5.4933333,608,352)"
   id="g158"><rect
     width="6"
     height="6"
     id="rect156"
     x="0"
     y="0" /></g>
<g
   transform="matrix(5.4933333,0,0,5.4933333,640,352)"
   id="g162"><rect
     width="6"
     height="6"
     id="rect160"
     x="0"
     y="0" /></g>
<g
   transform="matrix(5.4933333,0,0,5.4933333,672,352)"
   id="g166"><rect
     width="6"
     height="6"
     id="rect164"
     x="0"
     y="0" /></g>
<g
   transform="matrix(5.4933333,0,0,5.4933333,704,352)"
   id="g170"><rect
     width="6"
     height="6"
     id="rect168"
     x="0"
     y="0" /></g>
<g
   transform="matrix(5.4933333,0,0,5.4933333,96,384)"
   id="g174"><rect
     width="6"
     height="6"
     id="rect172"
     x="0"
     y="0" /></g>
<g
   transform="matrix(5.4933333,0,0,5.4933333,160,384)"
   id="g178"><rect
     width="6"
     height="6"
     id="rect176"
     x="0"
     y="0" /></g>
<g
   transform="matrix(5.4933333,0,0,5.4933333,192,384)"
   id="g182"><rect
     width="6"
     height="6"
     id="rect180"
     x="0"
     y="0" /></g>
<g
   transform="matrix(5.4933333,0,0,5.4933333,224,384)"
   id="g186"><rect
     width="6"
     height="6"
     id="rect184"
     x="0"
     y="0" /></g>
<g
   transform="matrix(5.4933333,0,0,5.4933333,256,384)"
   id="g190"><rect
     width="6"
     height="6"
     id="rect188"
     x="0"
     y="0" /></g>
<g
   transform="matrix(5.4933333,0,0,5.4933333,352,384)"
   id="g194"><rect
     width="6"
     height="6"
     id="rect192"
     x="0"
     y="0" /></g>
<g
   transform="matrix(5.4933333,0,0,5.4933333,384,384)"
   id="g198"><rect
     width="6"
     height="6"
     id="rect196"
     x="0"
     y="0" /></g>
<g
   transform="matrix(5.4933333,0,0,5.4933333,448,384)"
   id="g202"><rect
     width="6"
     height="6"
     id="rect200"
     x="0"
     y="0" /></g>
<g
   transform="matrix(5.4933333,0,0,5.4933333,480,384)"
   id="g206"><rect
     width="6"
     height="6"
     id="rect204"
     x="0"
     y="0" /></g>
<g
   transform="matrix(5.4933333,0,0,5.4933333,512,384)"
   id="g210"><rect
     width="6"
     height="6"
     id="rect208"
     x="0"
     y="0" /></g>
<g
   transform="matrix(5.4933333,0,0,5.4933333,544,384)"
   id="g214"><rect
     width="6"
     height="6"
     id="rect212"
     x="0"
     y="0" /></g>
<g
   transform="matrix(5.4933333,0,0,5.4933333,640,384)"
   id="g218"><rect
     width="6"
     height="6"
     id="rect216"
     x="0"
     y="0" /></g>
<g
   transform="matrix(5.4933333,0,0,5.4933333,672,384)"
   id="g222"><rect
     width="6"
     height="6"
     id="rect220"
     x="0"
     y="0" /></g>
<g
   transform="matrix(5.4933333,0,0,5.4933333,64,416)"
   id="g226"><rect
     width="6"
     height="6"
     id="rect224"
     x="0"
     y="0" /></g>
<g
   transform="matrix(5.4933333,0,0,5.4933333,96,416)"
   id="g230"><rect
     width="6"
     height="6"
     id="rect228"
     x="0"
     y="0" /></g>
<g
   transform="matrix(5.4933333,0,0,5.4933333,160,416)"
   id="g234"><rect
     width="6"
     height="6"
     id="rect232"
     x="0"
     y="0" /></g>
<g
   transform="matrix(5.4933333,0,0,5.4933333,192,416)"
   id="g238"><rect
     width="6"
     height="6"
     id="rect236"
     x="0"
     y="0" /></g>
<g
   transform="matrix(5.4933333,0,0,5.4933333,352,416)"
   id="g242"><rect
     width="6"
     height="6"
     id="rect240"
     x="0"
     y="0" /></g>
<g
   transform="matrix(5.4933333,0,0,5.4933333,480,416)"
   id="g246"><rect
     width="6"
     height="6"
     id="rect244"
     x="0"
     y="0" /></g>
<g
   transform="matrix(5.4933333,0,0,5.4933333,576,416)"
   id="g250"><rect
     width="6"
     height="6"
     id="rect248"
     x="0"
     y="0" /></g>
<g
   transform="matrix(5.4933333,0,0,5.4933333,608,416)"
   id="g254"><rect
     width="6"
     height="6"
     id="rect252"
     x="0"
     y="0" /></g>
<g
   transform="matrix(5.4933333,0,0,5.4933333,640,416)"
   id="g258"><rect
     width="6"
     height="6"
     id="rect256"
     x="0"
     y="0" /></g>
<g
   transform="matrix(5.4933333,0,0,5.4933333,64,448)"
   id="g262"><rect
     width="6"
     height="6"
     id="rect260"
     x="0"
     y="0" /></g>
<g
   transform="matrix(5.4933333,0,0,5.4933333,160,448)"
   id="g266"><rect
     width="6"
     height="6"
     id="rect264"
     x="0"
     y="0" /></g>
<g
   transform="matrix(5.4933333,0,0,5.4933333,192,448)"
   id="g270"><rect
     width="6"
     height="6"
     id="rect268"
     x="0"
     y="0" /></g>
<g
   transform="matrix(5.4933333,0,0,5.4933333,224,448)"
   id="g274"><rect
     width="6"
     height="6"
     id="rect272"
     x="0"
     y="0" /></g>
<g
   transform="matrix(5.4933333,0,0,5.4933333,256,448)"
   id="g278"><rect
     width="6"
     height="6"
     id="rect276"
     x="0"
     y="0" /></g>
<g
   transform="matrix(5.4933333,0,0,5.4933333,288,448)"
   id="g282"><rect
     width="6"
     height="6"
     id="rect280"
     x="0"
     y="0" /></g>
<g
   transform="matrix(5.4933333,0,0,5.4933333,416,448)"
   id="g286"><rect
     width="6"
     height="6"
     id="rect284"
     x="0"
     y="0" /></g>
<g
   transform="matrix(5.4933333,0,0,5.4933333,448,448)"
   id="g290"><rect
     width="6"
     height="6"
     id="rect288"
     x="0"
     y="0" /></g>
<g
   transform="matrix(5.4933333,0,0,5.4933333,480,448)"
   id="g294"><rect
     width="6"
     height="6"
     id="rect292"
     x="0"
     y="0" /></g>
<g
   transform="matrix(5.4933333,0,0,5.4933333,512,448)"
   id="g298"><rect
     width="6"
     height="6"
     id="rect296"
     x="0"
     y="0" /></g>
<g
   transform="matrix(5.4933333,0,0,5.4933333,576,448)"
   id="g302"><rect
     width="6"
     height="6"
     id="rect300"
     x="0"
     y="0" /></g>
<g
   transform="matrix(5.4933333,0,0,5.4933333,608,448)"
   id="g306"><rect
     width="6"
     height="6"
     id="rect304"
     x="0"
     y="0" /></g>
<g
   transform="matrix(5.4933333,0,0,5.4933333,704,448)"
   id="g310"><rect
     width="6"
     height="6"
     id="rect308"
     x="0"
     y="0" /></g>
<g
   transform="matrix(5.4933333,0,0,5.4933333,320,480)"
   id="g314"><rect
     width="6"
     height="6"
     id="rect312"
     x="0"
     y="0" /></g>
<g
   transform="matrix(5.4933333,0,0,5.4933333,352,480)"
   id="g318"><rect
     width="6"
     height="6"
     id="rect316"
     x="0"
     y="0" /></g>
<g
   transform="matrix(5.4933333,0,0,5.4933333,384,480)"
   id="g322"><rect
     width="6"
     height="6"
     id="rect320"
     x="0"
     y="0" /></g>
<g
   transform="matrix(5.4933333,0,0,5.4933333,416,480)"
   id="g326"><rect
     width="6"
     height="6"
     id="rect324"
     x="0"
     y="0" /></g>
<g
   transform="matrix(5.4933333,0,0,5.4933333,544,480)"
   id="g330"><rect
     width="6"
     height="6"
     id="rect328"
     x="0"
     y="0" /></g>
<g
   transform="matrix(5.4933333,0,0,5.4933333,576,480)"
   id="g334"><rect
     width="6"
     height="6"
     id="rect332"
     x="0"
     y="0" /></g>
<g
   transform="matrix(5.4933333,0,0,5.4933333,608,480)"
   id="g338"><rect
     width="6"
     height="6"
     id="rect336"
     x="0"
     y="0" /></g>
<g
   transform="matrix(5.4933333,0,0,5.4933333,640,480)"
   id="g342"><rect
     width="6"
     height="6"
     id="rect340"
     x="0"
     y="0" /></g>
<g
   transform="matrix(5.4933333,0,0,5.4933333,704,480)"
   id="g346"><rect
     width="6"
     height="6"
     id="rect344"
     x="0"
     y="0" /></g>
<g
   transform="matrix(5.4933333,0,0,5.4933333,320,512)"
   id="g350"><rect
     width="6"
     height="6"
     id="rect348"
     x="0"
     y="0" /></g>
<g
   transform="matrix(5.4933333,0,0,5.4933333,416,512)"
   id="g354"><rect
     width="6"
     height="6"
     id="rect352"
     x="0"
     y="0" /></g>
<g
   transform="matrix(5.4933333,0,0,5.4933333,448,512)"
   id="g358"><rect
     width="6"
     height="6"
     id="rect356"
     x="0"
     y="0" /></g>
<g
   transform="matrix(5.4933333,0,0,5.4933333,480,512)"
   id="g362"><rect
     width="6"
     height="6"
     id="rect360"
     x="0"
     y="0" /></g>
<g
   transform="matrix(5.4933333,0,0,5.4933333,512,512)"
   id="g366"><rect
     width="6"
     height="6"
     id="rect364"
     x="0"
     y="0" /></g>
<g
   transform="matrix(5.4933333,0,0,5.4933333,544,512)"
   id="g370"><rect
     width="6"
     height="6"
     id="rect368"
     x="0"
     y="0" /></g>
<g
   transform="matrix(5.4933333,0,0,5.4933333,640,512)"
   id="g374"><rect
     width="6"
     height="6"
     id="rect372"
     x="0"
     y="0" /></g>
<g
   transform="matrix(5.4933333,0,0,5.4933333,672,512)"
   id="g378"><rect
     width="6"
     height="6"
     id="rect376"
     x="0"
     y="0" /></g>
<g
   transform="matrix(5.4933333,0,0,5.4933333,352,544)"
   id="g382"><rect
     width="6"
     height="6"
     id="rect380"
     x="0"
     y="0" /></g>
<g
   transform="matrix(5.4933333,0,0,5.4933333,384,544)"
   id="g386"><rect
     width="6"
     height="6"
     id="rect384"
     x="0"
     y="0" /></g>
<g
   transform="matrix(5.4933333,0,0,5.4933333,416,544)"
   id="g390"><rect
     width="6"
     height="6"
     id="rect388"
     x="0"
     y="0" /></g>
<g
   transform="matrix(5.4933333,0,0,5.4933333,480,544)"
   id="g394"><rect
     width="6"
     height="6"
     id="rect392"
     x="0"
     y="0" /></g>
<g
   transform="matrix(5.4933333,0,0,5.4933333,544,544)"
   id="g398"><rect
     width="6"
     height="6"
     id="rect396"
     x="0"
     y="0" /></g>
<g
   transform="matrix(5.4933333,0,0,5.4933333,576,544)"
   id="g402"><rect
     width="6"
     height="6"
     id="rect400"
     x="0"
     y="0" /></g>
<g
   transform="matrix(5.4933333,0,0,5.4933333,608,544)"
   id="g406"><rect
     width="6"
     height="6"
     id="rect404"
     x="0"
     y="0" /></g>
<g
   transform="matrix(5.4933333,0,0,5.4933333,640,544)"
   id="g410"><rect
     width="6"
     height="6"
     id="rect408"
     x="0"
     y="0" /></g>
<g
   transform="matrix(5.4933333,0,0,5.4933333,672,544)"
   id="g414"><rect
     width="6"
     height="6"
     id="rect412"
     x="0"
     y="0" /></g>
<g
   transform="matrix(5.4933333,0,0,5.4933333,320,576)"
   id="g418"><rect
     width="6"
     height="6"
     id="rect416"
     x="0"
     y="0" /></g>
<g
   transform="matrix(5.4933333,0,0,5.4933333,384,576)"
   id="g422"><rect
     width="6"
     height="6"
     id="rect420"
     x="0"
     y="0" /></g>
<g
   transform="matrix(5.4933333,0,0,5.4933333,416,576)"
   id="g426"><rect
     width="6"
     height="6"
     id="rect424"
     x="0"
     y="0" /></g>
<g
   transform="matrix(5.4933333,0,0,5.4933333,512,576)"
   id="g430"><rect
     width="6"
     height="6"
     id="rect428"
     x="0"
     y="0" /></g>
<g
   transform="matrix(5.4933333,0,0,5.4933333,544,576)"
   id="g434"><rect
     width="6"
     height="6"
     id="rect432"
     x="0"
     y="0" /></g>
<g
   transform="matrix(5.4933333,0,0,5.4933333,576,576)"
   id="g438"><rect
     width="6"
     height="6"
     id="rect436"
     x="0"
     y="0" /></g>
<g
   transform="matrix(5.4933333,0,0,5.4933333,608,576)"
   id="g442"><rect
     width="6"
     height="6"
     id="rect440"
     x="0"
     y="0" /></g>
<g
   transform="matrix(5.4933333,0,0,5.4933333,320,608)"
   id="g446"><rect
     width="6"
     height="6"
     id="rect444"
     x="0"
     y="0" /></g>
<g
   transform="matrix(5.4933333,0,0,5.4933333,352,608)"
   id="g450"><rect
     width="6"
     height="6"
     id="rect448"
     x="0"
     y="0" /></g>
<g
   transform="matrix(5.4933333,0,0,5.4933333,384,608)"
   id="g454"><rect
     width="6"
     height="6"
     id="rect452"
     x="0"
     y="0" /></g>
<g
   transform="matrix(5.4933333,0,0,5.4933333,512,608)"
   id="g458"><rect
     width="6"
     height="6"
     id="rect456"
     x="0"
     y="0" /></g>
<g
   transform="matrix(5.4933333,0,0,5.4933333,576,608)"
   id="g462"><rect
     width="6"
     height="6"
     id="rect460"
     x="0"
     y="0" /></g>
<g
   transform="matrix(5.4933333,0,0,5.4933333,640,608)"
   id="g466"><rect
     width="6"
     height="6"
     id="rect464"
     x="0"
     y="0" /></g>
<g
   transform="matrix(5.4933333,0,0,5.4933333,672,608)"
   id="g470"><rect
     width="6"
     height="6"
     id="rect468"
     x="0"
     y="0" /></g>
<g
   transform="matrix(5.4933333,0,0,5.4933333,320,640)"
   id="g474"><rect
     width="6"
     height="6"
     id="rect472"
     x="0"
     y="0" /></g>
<g
   transform="matrix(5.4933333,0,0,5.4933333,384,640)"
   id="g478"><rect
     width="6"
     height="6"
     id="rect476"
     x="0"
     y="0" /></g>
<g
   transform="matrix(5.4933333,0,0,5.4933333,416,640)"
   id="g482"><rect
     width="6"
     height="6"
     id="rect480"
     x="0"
     y="0" /></g>
<g
   transform="matrix(5.4933333,0,0,5.4933333,448,640)"
   id="g486"><rect
     width="6"
     height="6"
     id="rect484"
     x="0"
     y="0" /></g>
<g
   transform="matrix(5.4933333,0,0,5.4933333,480,640)"
   id="g490"><rect
     width="6"
     height="6"
     id="rect488"
     x="0"
     y="0" /></g>
<g
   transform="matrix(5.4933333,0,0,5.4933333,544,640)"
   id="g494"><rect
     width="6"
     height="6"
     id="rect492"
     x="0"
     y="0" /></g>
<g
   transform="matrix(5.4933333,0,0,5.4933333,640,640)"
   id="g498"><rect
     width="6"
     height="6"
     id="rect496"
     x="0"
     y="0" /></g>
<g
   transform="matrix(5.4933333,0,0,5.4933333,320,672)"
   id="g502"><rect
     width="6"
     height="6"
     id="rect500"
     x="0"
     y="0" /></g>
<g
   transform="matrix(5.4933333,0,0,5.4933333,352,672)"
   id="g506"><rect
     width="6"
     height="6"
     id="rect504"
     x="0"
     y="0" /></g>
<g
   transform="matrix(5.4933333,0,0,5.4933333,480,672)"
   id="g510"><rect
     width="6"
     height="6"
     id="rect508"
     x="0"
     y="0" /></g>
<g
   transform="matrix(5.4933333,0,0,5.4933333,576,672)"
   id="g514"><rect
     width="6"
     height="6"
     id="rect512"
     x="0"
     y="0" /></g>
<g
   transform="matrix(5.4933333,0,0,5.4933333,608,672)"
   id="g518"><rect
     width="6"
     height="6"
     id="rect516"
     x="0"
     y="0" /></g>
<g
   transform="matrix(5.4933333,0,0,5.4933333,640,672)"
   id="g522"><rect
     width="6"
     height="6"
     id="rect520"
     x="0"
     y="0" /></g>
<g
   transform="matrix(5.4933333,0,0,5.4933333,320,704)"
   id="g526"><rect
     width="6"
     height="6"
     id="rect524"
     x="0"
     y="0" /></g>
<g
   transform="matrix(5.4933333,0,0,5.4933333,384,704)"
   id="g530"><rect
     width="6"
     height="6"
     id="rect528"
     x="0"
     y="0" /></g>
<g
   transform="matrix(5.4933333,0,0,5.4933333,480,704)"
   id="g534"><rect
     width="6"
     height="6"
     id="rect532"
     x="0"
     y="0" /></g>
<g
   transform="matrix(5.4933333,0,0,5.4933333,512,704)"
   id="g538"><rect
     width="6"
     height="6"
     id="rect536"
     x="0"
     y="0" /></g>
<g
   transform="matrix(5.4933333,0,0,5.4933333,544,704)"
   id="g542"><rect
     width="6"
     height="6"
     id="rect540"
     x="0"
     y="0" /></g>
<g
   transform="matrix(5.4933333,0,0,5.4933333,608,704)"
   id="g546"><rect
     width="6"
     height="6"
     id="rect544"
     x="0"
     y="0" /></g>
<g
   transform="matrix(5.4933333,0,0,5.4933333,672,704)"
   id="g550"><rect
     width="6"
     height="6"
     id="rect548"
     x="0"
     y="0" /></g>
<g
   transform="translate(64,64)"
   id="g556"><g
     transform="scale(16)"
     id="g554"><path
       d="M 0,0 V 14 H 14 V 0 Z M 12,12 H 2 V 2 h 10 z"
       id="path552" /></g></g>
<g
   transform="translate(512,64)"
   id="g562"><g
     transform="scale(16)"
     id="g560"><path
       d="M 0,0 V 14 H 14 V 0 Z M 12,12 H 2 V 2 h 10 z"
       id="path558" /></g></g>
<g
   transform="translate(64,512)"
   id="g568"><g
     transform="scale(16)"
     id="g566"><path
       d="M 0,0 V 14 H 14 V 0 Z M 12,12 H 2 V 2 h 10 z"
       id="path564" /></g></g>
<g
   transform="translate(128,128)"
   id="g574"><g
     transform="scale(16)"
     id="g572"><rect
       width="6"
       height="6"
       id="rect570"
       x="0"
       y="0" /></g></g>
<g
   transform="translate(576,128)"
   id="g580"><g
     transform="scale(16)"
     id="g578"><rect
       width="6"
       height="6"
       id="rect576"
       x="0"
       y="0" /></g></g>
<g
   transform="translate(128,576)"
   id="g586"><g
     transform="scale(16)"
     id="g584"><rect
       width="6"
       height="6"
       id="rect582"
       x="0"
       y="0" /></g></g>
</g></svg>
